<?xml version="1.0" encoding="UTF-8"?>
<svg id="Layer_1" xmlns="http://www.w3.org/2000/svg" version="1.1" viewBox="0 0 18 18">
  <!-- Generator: Adobe Illustrator 29.5.1, SVG Export Plug-In . SVG Version: 2.1.0 Build 141)  -->
  <defs>
    <style>
      .st0 {
        fill: #e4e4e4;
      }

      .st1 {
        display: none;
        fill: #fefefe;
      }

      .st2 {
        fill: #f2f2f2;
      }

      .st3 {
        fill: #e64b48;
      }
    </style>
  </defs>
  <path class="st1" d="M18,0v18H0v-3.44c.21.64.68,1.14,1.38,1.2,1.26.09,2.77-.01,4.06-.01,3.72.01,7.45,0,11.17,0,.72-.09,1.29-.66,1.36-1.38V3.67c-.07-.7-.6-1.27-1.29-1.38-1.39-.02-2.77,0-4.15,0-3.73,0-7.45,0-11.18,0C.66,2.37.18,2.86,0,3.52V0h18Z"/>
  <path d="M16.68,2.29c-1.39-.02-2.77,0-4.15,0-3.73,0-7.45,0-11.18,0C.66,2.37.18,2.86,0,3.52v11.05c.21.64.68,1.14,1.38,1.2,1.26.09,2.77-.01,4.06-.01,3.72.01,7.45,0,11.17,0,.72-.09,1.29-.66,1.36-1.38V3.67c-.07-.7-.6-1.27-1.29-1.38ZM12.25,3.02c.9,0,1.8-.02,2.7,0-1.17.85-2.31,1.73-3.48,2.58-.8.6-1.63,1.16-2.42,1.78h-.11L3.02,3.02h9.23ZM14.98,15.02H2.98V6.95c.07-.01.12.05.17.09,1.57,1.06,3.23,2.34,4.74,3.49.28.2.77.52.99.73h.21c1.96-1.31,3.78-2.91,5.72-4.22.06-.04.1-.1.17-.09v8.07ZM17.23,14.37c0,.16-.27.49-.42.56-.03.01-.25.09-.27.09h-.82V6.37c.33-.2.61-.48.91-.7.18-.13.41-.28.6-.37v9.07ZM17.21,4.35l-8.19,6.06h-.07c-.22-.2-.47-.35-.7-.52-1.82-1.32-3.61-2.7-5.43-4.03-.16-.13-.57.03-.57.23v8.93h-.83s-.22-.08-.26-.09c-.24-.12-.42-.35-.42-.63V3.81c.04-.54.4-.81.93-.79,2.44,1.67,4.78,3.54,7.21,5.24.13.05.21-.01.32-.06.54-.29,1.24-.95,1.75-1.32,1.75-1.29,3.54-2.55,5.29-3.85.84-.11,1.1.6.97,1.32Z"/>
  <path class="st3" d="M17.21,4.35l-8.19,6.06h-.07c-.22-.2-.47-.35-.7-.52-1.82-1.32-3.61-2.7-5.43-4.03-.16-.13-.57.03-.57.23v8.93h-.83s-.22-.08-.26-.09c-.24-.12-.42-.35-.42-.63V3.81c.04-.54.4-.81.93-.79,2.44,1.67,4.78,3.54,7.21,5.24.13.05.21-.01.32-.06.54-.29,1.24-.95,1.75-1.32,1.75-1.29,3.54-2.55,5.29-3.85.84-.11,1.1.6.97,1.32Z"/>
  <path class="st2" d="M12.49,15.02H2.98V6.95c.07-.01.12.05.17.09,1.57,1.06,3.23,2.34,4.74,3.49.28.2.77.52.99.73.01.01.01.09.05.11,1.04,1.2,2.49,2.28,3.49,3.49.05.05.08.08.07.16Z"/>
  <path class="st2" d="M14.95,3.03c-1.17.85-2.31,1.73-3.48,2.58-.8.6-1.63,1.16-2.42,1.78h-.11L3.02,3.02h9.23c.9,0,1.8-.02,2.7,0Z"/>
  <path class="st0" d="M14.98,6.95v8.07h-2.49c.01-.08-.02-.11-.07-.16-1-1.21-2.45-2.29-3.49-3.49-.04-.02-.04-.1-.05-.11h.21c1.96-1.31,3.78-2.91,5.72-4.22.06-.04.1-.1.17-.09Z"/>
  <path class="st3" d="M17.23,5.3v9.07c0,.16-.27.49-.42.56-.03.01-.25.09-.27.09h-.82V6.37c.33-.2.61-.48.91-.7.18-.13.41-.28.6-.37Z"/>
</svg>