<?xml version="1.0" encoding="UTF-8"?>
<svg id="Layer_1" data-name="Layer 1" xmlns="http://www.w3.org/2000/svg" viewBox="0 0 356.25 356.25">
  <defs>
    <style>
      .cls-1 {
        fill: #3b579d;
      }

      .cls-1, .cls-2 {
        stroke-width: 0px;
      }

      .cls-2 {
        fill: #fff;
      }
    </style>
  </defs>
  <rect class="cls-1" y="0" width="356.25" height="356.25" rx="72" ry="72"/>
  <path class="cls-2" d="m186.9,356.25c-.02-.7-.05-1.4-.05-2.1,0-41.98-.01-83.95.04-125.93,0-1.75-.38-2.2-2.17-2.19-13.35.09-26.7.03-40.05.08-1.4,0-1.87-.27-1.86-1.78.06-15.68.05-31.36,0-47.05,0-1.43.34-1.85,1.82-1.85,13.47.06,26.93.01,40.4.07,1.42,0,1.86-.32,1.85-1.81-.06-12.53-.13-25.07,0-37.6.14-13.58,2.92-26.52,10.32-38.13,8.5-13.35,20.9-21.09,36.11-24.72,8.94-2.13,18.01-2.22,27.11-1.99,9.73.25,19.45.67,29.15,1.61,1.29.12,1.61.55,1.6,1.81-.05,14.05-.06,28.1,0,42.15,0,1.49-.54,1.65-1.79,1.66-10.08.09-20.17-.33-30.25.24-2.22.13-4.4.54-6.52,1.18-7.91,2.4-12.06,7.84-12.95,16.8-.55,5.47-.28,10.95-.32,16.43-.05,6.88.03,13.76-.05,20.64-.01,1.37.34,1.74,1.72,1.73,15.45-.05,30.9,0,46.35-.07,1.67,0,2,.38,1.78,2.05-2.09,15.71-4.12,31.43-6.08,47.15-.18,1.43-.85,1.46-1.94,1.46-13.35-.02-26.7,0-40.05-.04-1.26,0-1.79.15-1.79,1.65.05,42.56.04,85.12.04,127.68,0,.29.02.58.02.87h-52.48Z"/>
</svg>