<?xml version="1.0" encoding="UTF-8"?>
<svg id="Layer_1" data-name="Layer 1" xmlns="http://www.w3.org/2000/svg" viewBox="0 0 356.25 356.25">
  <defs>
    <style>
      .cls-1 {
        fill: #4faf4f;
      }

      .cls-1, .cls-2, .cls-3, .cls-4, .cls-5, .cls-6 {
        stroke-width: 0px;
      }

      .cls-2 {
        fill: #f4f4f5;
      }

      .cls-3 {
        fill: #c7292a;
      }

      .cls-4 {
        fill: #f9bf2d;
      }

      .cls-5 {
        fill: #e63b35;
      }

      .cls-6 {
        fill: #3e83c4;
      }
    </style>
  </defs>
  <rect class="cls-2" width="356.25" height="356.25" rx="72" ry="72"/>
  <g>
    <path class="cls-3" d="m120.37,109.77v67.73l-51.59-38.19v-21.01c0-13.07,10.59-23.66,23.66-23.66,4.21,0,8.16,1.1,11.59,3.03l4.73,3.5s.01.01.02.02l11.59,8.58Z"/>
    <path class="cls-6" d="m120.37,177.5v80.62c0,1.93-1.56,3.49-3.49,3.49h-34.13c-7.71,0-13.97-6.25-13.97-13.97v-108.34l51.59,38.19Z"/>
    <path class="cls-5" d="m235.89,109.77v67.73l-52.59,38.93-3.09,2.29c-1.23.91-2.92.91-4.16,0l-3.09-2.29-52.59-38.93v-67.73l55.68,41.22c1.23.91,2.92.91,4.16,0l55.68-41.22Z"/>
    <path class="cls-4" d="m235.88,109.77v67.73s51.59-38.19,51.59-38.19v-21.01c0-13.07-10.59-23.66-23.66-23.66-4.21,0-8.16,1.1-11.59,3.03l-4.73,3.5s-.01.01-.02.02l-11.59,8.58Z"/>
    <path class="cls-1" d="m235.88,177.5v80.62c0,1.93,1.56,3.49,3.49,3.49h34.13c7.71,0,13.97-6.25,13.97-13.97v-108.34s-51.59,38.19-51.59,38.19Z"/>
  </g>
</svg>