<?xml version="1.0" encoding="UTF-8"?>
<svg id="Layer_1" data-name="Layer 1" xmlns="http://www.w3.org/2000/svg" viewBox="0 0 356.25 356.25">
  <defs>
    <style>
      .cls-1 {
        fill: #fff;
      }

      .cls-1, .cls-2 {
        stroke-width: 0px;
      }

      .cls-2 {
        fill: #2c67b1;
      }
    </style>
  </defs>
  <rect class="cls-2" width="356.25" height="356.25" rx="72" ry="72"/>
  <circle class="cls-1" cx="96.72" cy="96.39" r="25.33"/>
  <rect class="cls-1" x="74.51" y="143.07" width="44.41" height="143.17" rx="5" ry="5"/>
  <path class="cls-1" d="m285.81,193.12c-.2-13.98-5.24-26.83-15.07-36.79-6.21-6.29-13.13-10.64-20.62-13.2-9.22-3.16-19.29-3.61-29.9-1.66-13.2,2.43-24.36,8.64-33.62,19.18v-12.52c0-2.76-2.24-5-5-5h-33.23c-2.76,0-5,2.24-5,5v133.11c0,2.76,2.24,5,5,5h33.23c2.76,0,5-2.24,5-5v-68.34c.01-.67.02-1.51.02-2.53.04-15.14,8.59-26.2,22.35-29.16,16.64-3.58,30.34,4.86,33.09,20.5.44,2.47.46,5.03.46,7.55,0,1.16.1,2.32.28,3.49v68.49c0,2.76,2.24,5,5,5h33.23c2.76,0,5-2.24,5-5v-65.55c-.03-6.21-.1-13.28-.22-22.57Zm-101.72-29.44c0-.51.02-.49.04-.05,0,.02-.03.03-.04.05Z"/>
</svg>