<?xml version="1.0" encoding="UTF-8"?>
<svg id="Layer_1" data-name="Layer 1" xmlns="http://www.w3.org/2000/svg" viewBox="0 0 356.25 356.25">
  <defs>
    <style>
      .cls-1 {
        fill: #9bc86b;
      }

      .cls-1, .cls-2, .cls-3, .cls-4, .cls-5, .cls-6, .cls-7, .cls-8, .cls-9, .cls-10 {
        stroke-width: 0px;
      }

      .cls-2 {
        fill: #e73f25;
      }

      .cls-3 {
        fill: #373535;
      }

      .cls-4 {
        fill: #cddbb8;
      }

      .cls-5 {
        fill: #f1f2f2;
      }

      .cls-6 {
        fill: #3a393a;
      }

      .cls-7 {
        fill: #fdfbf9;
      }

      .cls-8 {
        fill: #cc3927;
      }

      .cls-9 {
        fill: #373635;
      }

      .cls-10 {
        fill: #3c3431;
      }
    </style>
  </defs>
  <rect class="cls-5" width="356.25" height="356.25" rx="72" ry="72"/>
  <g>
    <path class="cls-2" d="m210.72,212.2c-19.01,25.87-45.15,39.01-77.7,38.23-3.9-.09-7.18-1.27-9.45-4.43-.23-.29-.43-.6-.62-.92-.54-.91-.98-1.97-1.93-2.56-.2-.13-.43-.24-.69-.31-1.27-1.37-2.36-2.85-3.33-4.39-2.55-4.05-4.26-8.58-6.14-12.93-5.44-12.53-9.26-25.44-10-39.01-.03-.36-.04-.71-.05-1.07-.07-1.53-.1-3.07-.08-4.62v-.02c.01-1.15.04-2.31.1-3.47.12-2.37.41-4.69.79-6.99.32-1.96.7-3.9,1.09-5.85.16-.78.32-1.55.47-2.33,1.25-5.4,3.97-10.17,6.47-15.04,1.48-2.9,3.63-4.38,7.15-4.29,4.56.13,6.12-1.45,5.67-6.03-.39-3.98,1.44-6.18,4.44-8.11,5.1-3.26,10.54-4.9,16.37-4.87h0c.9.01,1.8.05,2.72.14.42.04.85.09,1.28.14,1.67.2,3.18.95,4.31,2.08,3.02,3.04,6.96,3.9,10.85,4.95,6.03,3.28,11.26,7.61,16.07,12.45,2.11,2.12,3.76,2.47,6.81.93,7.5-3.77,14.7-8.34,22.98-10.43,3-.16,5.85-1.07,8.57-2.19,3.63-1.51,5.68-.2,6.97,3.16,2.05,5.32,3.16,10.9,3.65,16.51,1.96,22.46-3.62,43.36-16.78,61.27Z"/>
    <path class="cls-3" d="m267.1,151.94c-2.54-26.22-20.46-41.46-46.83-41.06-11.86.18-22.99,3.41-33.66,8.29-3.07,1.4-4.06,1.16-3.99-2.44.18-8.16.04-16.32.08-24.49.02-3.68-.81-6.98-5.17-7.04-4.71-.08-5.42,3.39-5.41,7.26.06,11.66,0,23.32.04,34.99.02,7.37,3.34,9.36,9.73,5.8,10.56-5.86,21.61-10.38,33.7-11.65,10.35-1.09,20.29-.05,28.55,7.29.08,1.07.72,1.85,1.39,2.59,6.69,7.37,9.58,16.29,10.18,25.99.65,10.32.1,20.63-1.49,30.85-2.56,16.36-7.44,32.07-14.16,47.2-4.48,10.1-9.85,19.61-18.06,27.29-3.61,3.38-7.61,4.46-12.38,3.39-5.23-1.17-10.15-3.2-15.13-5.08-6.63-2.52-13.41-3.5-20.55-2.56-7.77,1.02-14.55,4.63-21.65,7.43-4.62,1.82-9.02,2.23-13.34-.64-.26-.15-.51-.31-.76-.47-1.95-1.23-3.73-2.66-5.37-4.26-.02-.01-.03-.02-.03-.03-.86-.83-1.69-1.71-2.48-2.64-5.31-6.23-9.64-13-13.31-20.13-2.91-5.66-5.41-11.54-7.66-17.56-4.16-11.17-7.55-22.57-8.08-34.6-.01-.03-.01-.07-.01-.1-.07-.58-.14-1.17-.19-1.75h0c-.14-1.22-.24-2.42-.33-3.62v-.02c-.5-7.33-.24-14.68.29-21.98.75-10.29,4.22-19.77,10.56-28.1,6.53-8.58,16.89-11.86,27.13-8.45,1.53.51,3.04,1.07,4.57,1.55h0c1.42.45,2.85.83,4.34,1.03,1.58,1.12,3.29,2.1,4.71,3.39,2.93,2.68,6.06,4.29,10.11,2.89,2.98-3.79,2.21-6.93-1.45-9.83-6.7-5.33-13.91-9.67-22.22-12.01-12.32-3.47-23.12-.72-32.02,8.39-10.38,10.63-15.72,23.73-17.5,38.33-2.82,23.13,1.3,45.41,8.75,67.2,5.52,16.16,12.78,31.4,24.29,44.32,3.8,4.26,8.31,7.66,14.36,11.32-6.06,0-10.55.01-15.04,0-6.33,0-12.66-.01-18.99-.03-2.96,0-5.59.87-5.71,4.19-.14,3.73,2.71,4.5,5.82,4.51h61.47c19.5,0,38.99-.02,58.48.01,2.77.01,5.13-.61,5.58-3.7.45-3.08-1.45-4.55-4.3-5.01-.47-.08-.92-.25-1.81-.5,7.43-4.14,13.05-9.82,17.31-16.63,20.9-33.39,31.48-69.55,27.63-109.12Zm-109.54,126.1c15.38-12.31,30.97-7.81,47.03,0h-47.03Z"/>
    <path class="cls-8" d="m244.14,128.9c6.26,4.07,9.26,10.4,11.03,17.18,4.04,15.47,2.53,31.12-.27,46.52-3.85,21.17-10.76,41.36-22.26,59.76-.44.7-.87,1.42-1.37,2.08-12.18,16.05-15.39,16.85-36.38,8.36-11.25-4.55-22.24-4.33-33.2.87-3.15,1.49-6.46,2.64-9.65,4.05-4.79,2.12-9.35,1.85-13.72-1.08-5.67-6.05-11.25-12.17-15.41-19.42-.94-1.63-2.75-3.07-1.62-5.35.31-.05.86-.22.89-.14,5.18,10.71,14.93,7.55,23.19,6.96,12.3-.88,24.04-4.75,34.83-10.8,8.41-4.72,15.94-10.75,22.47-17.88,10.87-11.85,17.93-25.81,21.52-41.41,3.29-14.28,3.14-28.6-1.16-42.73-1.11-3.64-2.72-5.69-7.16-3.35-2.01,1.06-4.86,2.14-7.55.93,11.52-4.83,23.4-6.87,35.83-4.55Z"/>
    <path class="cls-9" d="m197.95,110.39c-1.5,0-3.02.17-4.49-.03-4.53-.63-6.04-2.93-4.97-7.31,4.04-16.53,19.98-30.78,36.99-33.01,4.45-.58,8.9-1.15,13.41-.31,5.32.99,6.74,2.99,4.75,8.4-4.66,12.7-12.66,22.56-25.35,28.02-6.47,2.78-13.23,4.44-20.34,4.25Z"/>
    <path class="cls-6" d="m254.38,278.22c2.65,0,5.31-.1,7.95.03,2.74.13,4.9,1.2,4.91,4.39,0,2.94-2.06,4.13-4.55,4.21-5.46.16-10.94.16-16.4-.05-2.3-.09-4.11-1.36-4.17-4.05-.07-2.92,1.73-4.24,4.31-4.44,2.63-.21,5.3-.05,7.95-.05,0-.01,0-.02,0-.04Z"/>
    <path class="cls-7" d="m141.41,162.48c-.29,6.93-6.36,12.6-13.05,12.19-7.18-.43-12.24-5.98-12.03-13.17.21-7.18,6.26-12.63,13.52-12.17,6.5.41,11.84,6.48,11.56,13.15Z"/>
    <path class="cls-10" d="m246.09,167.33c.99,14.17-2.42,27.72-6.13,41.2-.75,2.74-2.45,5.07-5.69,4.24-3.7-.95-3.61-4.14-2.73-6.93,2.8-8.91,4.5-18.03,5.97-27.22,1.04-6.46.88-12.92.25-19.39-.13-1.32-.51-2.63-.55-3.95-.08-2.61-.74-5.85,3.17-6.14,3.76-.28,5.39,2.49,5.63,5.7.32,4.14.08,8.32.08,12.48Z"/>
    <path class="cls-1" d="m225.23,78.86c2.67-1.38,5.47-.67,8.28-.7-2.98,13.31-19.8,24.37-34.85,22.88,1.09-3.72,2.76-7.01,5.45-9.76,6.2-5.57,13.26-9.67,21.12-12.42Z"/>
    <path class="cls-4" d="m225.23,78.86c-4.54,3.85-10.59,5.07-15.27,8.82-1.69,1.35-2.93,4.04-5.85,3.6,5.46-6.82,12.47-11.02,21.12-12.42Z"/>
  </g>
</svg>